<!-- Generator: Adobe Illustrator 18.1.0, SVG Export Plug-In  -->
<svg id="skyline3" version="1.1"
     xmlns="http://www.w3.org/2000/svg" xmlns:xlink="http://www.w3.org/1999/xlink" xmlns:a="http://ns.adobe.com/AdobeSVGViewerExtensions/3.0/"
     x="0px" y="0px" width="1309px" height="814px" viewBox="0 0 1309 814" enable-background="new 0 0 1309 814" xml:space="preserve"
    >
<defs>
</defs>
    <g>
        <polygon fill="#4E314E" points="10,659 41,659 41,709 46,709 46,651 48,651 48,646 56,646 56,658 63,658 63,636 82,636 82,621 
            88,621 88,628 91,628 91,636 94,636 94,675 99,675 99,591 106,591 106,586 124,586 124,644 136,644 136,686 141,686 141,483 
            147,483 147,479 155,479 180.4,453.4 181.8,411.9 183.1,453.6 202,472.5 202,483 206,483 206,500 214,491.5 214,473 218,473 
            218,642 223,642 223,634 249,634 249,572 281,572 281,569 299,569 299,573 303,573 303,677 309,677 309,710 315,710 315,652 
            333,652 333,582 337,582 337,577 355,569 362,569 377,577.5 377,581 381,581 381,688 388,688 388,648 410,648 410,696 414,696 
            414,690 421,690 421,539 429,539 429,524 435.8,512 463,512 463,517 467,517 467,448 471,448 471,443 467,443 467,428 484,428 
            484,422 486,422 486,428 493,428 493,422 495,422 495,428 512,428 512,443 509,443 509,448 512,448 512,581 526,581 526,636 
            536,636 536,601 541,601 541,593 562,593 562,602 565,602 565,642 572,642 572,605 586,605 586,631 598,631 598,597 603,597 
            603,592 638,592 638,597 642,597 642,584 657,584 657,596 665,596 665,624 682,624 682,635 685,635 685,647 696,647 696,683 
            702,683 702,574 706,574 706,565 717,565 717,515 720,515 720,510 725,510 725,496 728,496 728,488 732,488 732,486 737,486 
            737,479 754,479 754,486 759,486 759,489 763,489 763,497 768,497 768,510 770,510 770,514 774,514 774,576 788,576 788,562 
            796,562 796,567 806,567 806,574 817,574 817,639 821,639 821,645 823,645 823,653 827,653 827,647 831,647 831,637 851,637 
            851,617 854,617 854,609 857,609 857,617 864,617 864,565 872,565 872,558 898,558 898,565 906,565 906,599 911,599 911,568 
            923,568 923,574 929,574 929,568 937,568 937,520 951,520 951,510 980,510 980,520 991,520 991,580 1000,580 1000,644 1004,644 
            1004,689 1009,689 1009,581 1026,581 1026,575 1042,575 1042,562 1055,562 1055,437 1060,437 1060,433 1063,433 1063,437 
            1067,437 1067,433 1075,433 1075,437 1078,437 1078,433 1081,433 1081,437 1084,437 1084,427 1114,426.9 1114,618 1126,618 
            1126,612 1146,612 1146,618 1151,618 1151,624 1156,624 1156,632 1165,632 1165,626 1178,626 1178,643 1185,643 1185,636 
            1189,636 1189,621 1208,621 1208,708 1212,708 1212,657 1216,657 1216,604 1232,604 1232,599 1254,599 1254,673 1259,673 
            1259,611 1280,611 1280,671 1301,671 1301,785 10,785         "/>
        <line fill="#4E314E" x1="355" y1="555" x2="355" y2="569"/>
        <line fill="#4E314E" x1="361" y1="555" x2="361" y2="569"/>
        <line fill="#4E314E" x1="743" y1="479" x2="743" y2="447"/>
        <line fill="#4E314E" x1="749" y1="479" x2="749" y2="447"/>
        <line fill="#4E314E" x1="746" y1="479" x2="746" y2="432"/>
        <line fill="#4E314E" x1="743" y1="452" x2="750" y2="452"/>
        <line fill="#4E314E" x1="743" y1="456" x2="750" y2="456"/>
        <line fill="#4E314E" x1="743" y1="460" x2="750" y2="460"/>
        <line fill="#4E314E" x1="743" y1="464" x2="750" y2="464"/>
        <line fill="#4E314E" x1="743" y1="468" x2="750" y2="468"/>
        <line fill="#4E314E" x1="743" y1="472" x2="750" y2="472"/>
        <line fill="#4E314E" x1="743" y1="476" x2="749" y2="476"/>
        <line fill="#4E314E" x1="891" y1="520" x2="891" y2="558"/>
    </g>
</svg>