
<!-- Generator: Adobe Illustrator 18.1.0, SVG Export Plug-In  -->
<svg id="skyline1" version="1.1"
     xmlns="http://www.w3.org/2000/svg" xmlns:xlink="http://www.w3.org/1999/xlink" xmlns:a="http://ns.adobe.com/AdobeSVGViewerExtensions/3.0/"
     x="0px" y="0px" width="1309px" height="814px" viewBox="0 0 1309 814" enable-background="new 0 0 1309 814" xml:space="preserve"
    >
<defs>
</defs>
    <polygon fill="#242543" points="0,814 1308,814 1308,675 1309,675 1309,593 1277,593 1277,590 1253,590 1253,595 
        1249,595 1249,731 1240,731 1240,775 1233,775 1233,699 1209,699 1209,606 1203,606 1203,600.3 1179.3,590 1170.1,590 1151,600.9 
        1151,605 1146,605 1146,746 1137,746 1137,694 1107,694 1107,756 1102,756 1102,749 1093,749 1093,550 1083,550 1083,530.7 
        1073.3,515 1038,515 1038,521 1033,521 1033,431 1028,431 1028,424 1033,424 1033,405 1010,405 1010,397 1008,397 1008,405 
        999,405 999,397 996,397 996,405 974,405 974,424 978,424 978,431 974,431 974,605 955,605 955,678 942,678 942,632 936,632 
        936,621 908,621 908,633 905,633 905,685 895,685 895,637 877,637 877,671 860,671 860,627 854,627 854,620 809,620 809,627 
        803,627 803,610 784,610 784,625 773,625 773,662 750,662 750,676 747,676 747,693 732,693 732,739 725,739 725,597 719,597 
        719,585 705,585 705,519 701,519 701,513 694,513 694,494 690,494 690,483 685,483 685,481 678,481 678,472 657,472 657,481 
        650,481 650,485 645,485 645,495 638,495 638,513 635,513 635,518 630,518 630,599 611,599 611,580 601,580 601,587 588,587 
        588,597 574,597 574,682 568,682 568,689 566,689 566,700 561,700 561,693 555,693 555,679 529,679 529,653 525,653 525,642 
        521,642 521,653 512,653 512,585 501,585 501,575 467,575 467,585 457,585 457,629 451,629 451,588 434,588 434,597 427,597 
        427,588 416,588 416,525 398,525 398,513 360,513 360,525 345,525 345,604 333,604 333,688 328,688 328,748 321,748 321,605 
        300,605 300,598 278,598 278,580 261,580 261,417 254,417 254,411 251,411 251,417 246,417 246,411 235,411 235,417 231,417 
        231,411 227,411 227,417 223,417 223,403.4 183,403.2 183,654 168,654 168,646 141,646 141,654 135,654 135,662 128,662 128,672 
        116,672 116,665 100,665 100,687 90,687 90,678 85,678 85,658 60,658 60,772 55,772 55,706 49,706 49,635 29,635 29,629 0,629   "/>
</svg>