
<!-- Generator: Adobe Illustrator 18.1.0, SVG Export Plug-In  -->
<svg id="skyline2" version="1.1"
     xmlns="http://www.w3.org/2000/svg" xmlns:xlink="http://www.w3.org/1999/xlink" xmlns:a="http://ns.adobe.com/AdobeSVGViewerExtensions/3.0/"
     x="0px" y="0px" width="1309px" height="814px" viewBox="0 0 1309 814" enable-background="new 0 0 1309 814" xml:space="preserve"
    >
<defs>
</defs>
    <polygon fill="#4E314E" points="970,584 951,584 951,613 949,613 949,579 947,579 947,576 943,576 943,583 939,583 939,570 
        927,570 927,561 924,561 924,565 922,565 922,570 921,570 921,593 918,593 918,544 914,544 914,541 903,541 903,575 897,575 
        897,599 893,599 893,482 890,482 890,479 885.4,479 870.7,464.3 869.9,440.3 869.5,464.5 859,475.5 859,482 856,482 856,491.4 
        851,486.5 851,476 849,476 849,574 846,574 846,569 831,569 831,533 812,533 812,532 802,532 802,534 800,534 800,594 796,594 
        796,613 793,613 793,580 782,580 782,539 780,539 780,536 769.5,532 765.5,532 757,536.3 757,538 754,538 754,600 751,600 
        751,577 738,577 738,605 735,605 735,601 731,601 731,514 727,514 727,505.3 722.8,498 707,498 707,502 704,502 704,461 702,461 
        702,459 704,459 704,450 694,450 694,446 694,446 694,450 690,450 690,446 689,446 689,450 679,450 679,459 680,459 680,461 
        679,461 679,538 670,538 670,570 665,570 665,550 662,550 662,546 650,546 650,551 648,551 648,574 644,574 644,552 636,552 
        636,567 629,567 629,547 626,547 626,545 606,545 606,547 603,547 603,540 594,540 594,547 590,547 590,563 580,563 580,570 
        579,570 579,576 572,576 572,598 569,598 569,534 566,534 566,529 560,529 560,500 558,500 558,498 555,498 555,489 554,489 
        554,484 551,484 551,483 549,483 549,479 539,479 539,483 535,483 535,485 533,485 533,490 530,490 530,498 529,498 529,499 
        527,499 527,536 519,536 519,527 514,527 514,530 508,530 508,534 502,534 502,572 500,572 500,575 498,575 498,580 497,580 
        497,576 494,576 494,570 482,570 482,559 481,559 481,555 479,555 479,559 475,559 475,529 470,529 470,525 455,525 455,529 
        450,529 450,549 448,549 448,531 440,531 440,534 437,534 437,531 433,531 433,503 424,503 424,498 408,498 408,503 401,503 
        401,538 396,538 396,575 394,575 394,601 390,601 390,538 381,538 381,535 371,535 371,527 364,527 364,455 361,455 361,453 
        360,453 360,455 357,455 357,453 352,453 352,455 351,455 351,453 349,453 349,455 347,455 347,449.2 330,449.1 330,560 323,560 
        323,556 312,556 312,560 308,560 308,563 306,563 306,568 300,568 300,565 293,565 293,575 289,575 289,570 286,570 286,561 
        275,561 275,612 273,612 273,582 271,582 271,551 261,551 261,549 249,549 249,592 246,592 246,556 234,556 234,590 221,590 
        221,657 970,657         "/>
    <line fill="#4E314E" x1="770" y1="523" x2="770" y2="532"/>
    <line fill="#4E314E" x1="766" y1="523" x2="766" y2="532"/>
    <line fill="#4E314E" x1="545" y1="479" x2="545" y2="461"/>
    <line fill="#4E314E" x1="541" y1="479" x2="541" y2="461"/>
    <line fill="#4E314E" x1="543" y1="479" x2="543" y2="452"/>
    <line fill="#4E314E" x1="545" y1="464" x2="540" y2="464"/>
    <line fill="#4E314E" x1="545" y1="466" x2="540" y2="466"/>
    <line fill="#4E314E" x1="545" y1="469" x2="540" y2="469"/>
    <line fill="#4E314E" x1="545" y1="470" x2="540" y2="470"/>
    <line fill="#4E314E" x1="545" y1="473" x2="540" y2="473"/>
    <line fill="#4E314E" x1="545" y1="475" x2="540" y2="475"/>
    <line fill="#4E314E" x1="545" y1="478" x2="541" y2="478"/>
    <line fill="#4E314E" x1="459" y1="503" x2="459" y2="525"/>
</svg>